<?xml version="1.0" encoding="UTF-8"?>
<!DOCTYPE svg PUBLIC "-//W3C//DTD SVG 1.1//EN" "http://www.w3.org/Graphics/SVG/1.1/DTD/svg11.dtd">
<svg xmlns="http://www.w3.org/2000/svg" version="1.1" width="577px" height="433px" style="shape-rendering:geometricPrecision; text-rendering:geometricPrecision; image-rendering:optimizeQuality; fill-rule:evenodd; clip-rule:evenodd" xmlns:xlink="http://www.w3.org/1999/xlink">
<g><path style="opacity:1" fill="#de2f89" d="M 390.5,-0.5 C 391.833,-0.5 393.167,-0.5 394.5,-0.5C 395.051,2.08964 396.384,2.75631 398.5,1.5C 399.855,2.18819 400.855,3.18819 401.5,4.5C 401.373,6.91537 401.207,9.24871 401,11.5C 402.903,9.55901 403.736,7.22568 403.5,4.5C 403.801,1.68299 405.134,1.01632 407.5,2.5C 408.641,4.42131 408.808,6.42131 408,8.5C 405.648,14.5299 403.315,20.5299 401,26.5C 399.729,29.4326 398.062,32.0993 396,34.5C 395.104,43.4098 393.271,52.0764 390.5,60.5C 391.159,66.3179 394.493,69.1513 400.5,69C 405.179,73.0022 410.179,76.5022 415.5,79.5C 416.791,79.2627 417.791,79.596 418.5,80.5C 417.71,81.4013 416.71,82.0679 415.5,82.5C 413.456,83.7784 411.456,83.6117 409.5,82C 406.167,79 402.833,76 399.5,73C 395.358,72.6725 391.358,71.8392 387.5,70.5C 386.391,77.0556 383.891,83.0556 380,88.5C 372.998,98.0015 364.832,106.335 355.5,113.5C 355.167,113.5 354.833,113.5 354.5,113.5C 351.827,104.483 349.16,95.483 346.5,86.5C 347.167,86.5 347.5,86.1667 347.5,85.5C 348.5,83.8333 349.833,82.5 351.5,81.5C 352.906,81.0269 353.573,80.0269 353.5,78.5C 353.328,77.5084 353.662,76.8417 354.5,76.5C 355.906,76.0269 356.573,75.0269 356.5,73.5C 357.659,69.8487 359.326,66.5154 361.5,63.5C 362.751,62.528 362.418,61.8614 360.5,61.5C 359.584,61.5427 358.917,61.8761 358.5,62.5C 355.904,63.2653 353.237,63.5987 350.5,63.5C 347.579,63.7174 344.913,63.0507 342.5,61.5C 341.833,61.5 341.5,61.1667 341.5,60.5C 341.5,59.1667 342.167,58.5 343.5,58.5C 349.103,59.5127 354.77,59.5127 360.5,58.5C 366.934,59.679 369.934,57.0123 369.5,50.5C 372.909,43.5148 375.909,36.3482 378.5,29C 374.041,21.1998 373.374,13.0331 376.5,4.5C 379.526,2.67853 382.526,2.3452 385.5,3.5C 386.568,4.43448 387.901,4.76781 389.5,4.5C 389.433,3.04125 389.766,1.70792 390.5,0.5C 390.5,0.166667 390.5,-0.166667 390.5,-0.5 Z"/></g>
<g><path style="opacity:0.839" fill="#f08ec1" d="M 390.5,0.5 C 389.766,1.70792 389.433,3.04125 389.5,4.5C 387.901,4.76781 386.568,4.43448 385.5,3.5C 386.5,3.5 387.5,3.5 388.5,3.5C 388.285,1.82124 388.952,0.821236 390.5,0.5 Z"/></g>
<g><path style="opacity:0.165" fill="#f8d1e7" d="M 401.5,4.5 C 402.167,4.5 402.833,4.5 403.5,4.5C 403.736,7.22568 402.903,9.55901 401,11.5C 401.207,9.24871 401.373,6.91537 401.5,4.5 Z"/></g>
<g><path style="opacity:0.776" fill="#f39eca" d="M 279.5,35.5 C 276.833,35.5 274.167,35.5 271.5,35.5C 274.167,32.8333 276.833,32.8333 279.5,35.5 Z"/></g>
<g><path style="opacity:1" fill="#dc1b84" d="M 271.5,35.5 C 274.167,35.5 276.833,35.5 279.5,35.5C 279.427,37.0269 280.094,38.0269 281.5,38.5C 283.279,40.3435 285.612,41.0102 288.5,40.5C 292.463,41.1295 294.796,43.4629 295.5,47.5C 295.5,48.8333 295.5,50.1667 295.5,51.5C 297.5,51.5 299.5,51.5 301.5,51.5C 307.74,59.1797 309.074,67.6797 305.5,77C 305.933,78.928 306.6,80.7613 307.5,82.5C 306.614,88.5598 303.28,92.7264 297.5,95C 299.09,100.387 297.423,104.554 292.5,107.5C 293.624,108.914 294.624,110.414 295.5,112C 297.669,110.886 299.502,111.386 301,113.5C 303.801,110.853 306.968,108.853 310.5,107.5C 312.19,107.144 313.19,106.144 313.5,104.5C 313.842,103.662 314.508,103.328 315.5,103.5C 316.5,103.5 317.5,103.5 318.5,103.5C 318.5,101.5 318.5,99.5 318.5,97.5C 321.684,96.216 324.85,96.5494 328,98.5C 330.279,95.6194 333.112,93.6194 336.5,92.5C 338.027,92.573 339.027,91.9063 339.5,90.5C 339.833,90.5 340.167,90.5 340.5,90.5C 337.604,103.242 334.937,115.908 332.5,128.5C 331.737,126.632 330.737,124.965 329.5,123.5C 331.793,130.752 335.126,137.419 339.5,143.5C 337.833,139.5 336.167,135.5 334.5,131.5C 336.013,117.271 338.679,103.271 342.5,89.5C 342.5,88.8333 342.833,88.5 343.5,88.5C 344.829,99.1114 345.496,109.778 345.5,120.5C 345.167,121.167 344.833,121.833 344.5,122.5C 343.046,124.263 343.38,125.597 345.5,126.5C 345.263,127.791 345.596,128.791 346.5,129.5C 347.919,130.451 349.585,130.784 351.5,130.5C 353.292,130.366 354.958,130.699 356.5,131.5C 357.568,132.434 358.901,132.768 360.5,132.5C 361.968,134.916 362.635,137.583 362.5,140.5C 362.5,140.833 362.5,141.167 362.5,141.5C 361.778,141.082 361.278,140.416 361,139.5C 358.402,142.89 356.568,146.557 355.5,150.5C 354.131,152.068 353.131,153.901 352.5,156C 348.656,158.515 344.823,161.015 341,163.5C 338.282,161.675 335.782,159.675 333.5,157.5C 333.446,155.368 332.446,154.035 330.5,153.5C 328.429,148.786 326.262,144.119 324,139.5C 322.426,140.984 321.093,142.651 320,144.5C 317.571,153.624 314.071,162.291 309.5,170.5C 307.559,174.069 307.226,177.735 308.5,181.5C 310.208,184.95 311.541,188.617 312.5,192.5C 312.528,195.916 313.528,198.916 315.5,201.5C 317.088,202.635 317.421,203.969 316.5,205.5C 317.213,207.776 317.713,210.109 318,212.5C 320.86,218.22 323.693,223.886 326.5,229.5C 326.427,231.027 327.094,232.027 328.5,232.5C 332.268,239.602 335.768,246.935 339,254.5C 339.127,257.604 339.293,260.604 339.5,263.5C 338.995,264.919 337.995,265.585 336.5,265.5C 335.527,267.292 336.194,268.625 338.5,269.5C 338.427,271.027 339.094,272.027 340.5,272.5C 346.041,281.597 350.541,291.263 354,301.5C 359.246,304.248 364.079,307.581 368.5,311.5C 373.009,320.181 376.676,329.181 379.5,338.5C 379.12,340.698 379.787,342.365 381.5,343.5C 381.5,343.833 381.5,344.167 381.5,344.5C 381.12,346.698 381.787,348.365 383.5,349.5C 384.634,352.37 385.3,355.37 385.5,358.5C 385.565,361.428 386.232,364.095 387.5,366.5C 389.604,372.87 390.771,379.537 391,386.5C 391.667,395.167 391.667,403.833 391,412.5C 390.617,413.056 390.117,413.389 389.5,413.5C 387.564,417.715 386.897,422.381 387.5,427.5C 387.5,427.833 387.5,428.167 387.5,428.5C 380.733,429.132 374.067,429.799 367.5,430.5C 340.999,430.895 314.666,431.561 288.5,432.5C 267.167,432.5 245.833,432.5 224.5,432.5C 224.018,431.584 223.685,430.584 223.5,429.5C 224.52,406.85 225.02,384.183 225,361.5C 223,359.5 221,357.5 219,355.5C 218.333,341.5 218.333,327.5 219,313.5C 219.5,312.5 220,311.5 220.5,310.5C 219.52,298.217 219.187,285.884 219.5,273.5C 217.393,272.532 215.059,272.198 212.5,272.5C 211.508,272.672 210.842,272.338 210.5,271.5C 208.919,269.858 208.253,267.858 208.5,265.5C 209.167,263.167 209.833,260.833 210.5,258.5C 211.598,257.399 211.765,256.066 211,254.5C 210.283,255.044 209.783,255.711 209.5,256.5C 203.375,263.795 197.042,270.962 190.5,278C 186.581,279.447 183.248,281.614 180.5,284.5C 180.703,286.208 181.536,287.541 183,288.5C 183.667,289.833 183.667,291.167 183,292.5C 181.92,294.553 181.086,296.72 180.5,299C 178.511,299.519 177.511,298.686 177.5,296.5C 176.391,295.71 175.058,295.21 173.5,295C 174.167,294.667 174.833,294.333 175.5,294C 173.845,292.556 173.178,290.722 173.5,288.5C 171.782,287.776 169.948,287.109 168,286.5C 167.71,284.08 167.21,281.746 166.5,279.5C 166.808,277.076 166.474,274.743 165.5,272.5C 164.735,271.388 163.735,270.721 162.5,270.5C 160.901,270.768 159.568,270.434 158.5,269.5C 159.091,268.849 159.757,268.182 160.5,267.5C 158.608,265.119 158.108,262.453 159,259.5C 160.188,260.563 160.688,261.897 160.5,263.5C 159.957,263.56 159.624,263.893 159.5,264.5C 161.636,265.793 163.636,265.793 165.5,264.5C 165.833,264.5 166.167,264.5 166.5,264.5C 167.693,264.03 168.36,263.03 168.5,261.5C 168.36,259.97 167.693,258.97 166.5,258.5C 166.936,254.65 167.936,250.984 169.5,247.5C 168.392,242.515 167.392,237.515 166.5,232.5C 166.448,228.802 166.114,225.135 165.5,221.5C 165.672,220.508 165.338,219.842 164.5,219.5C 164.16,212.776 163.326,206.11 162,199.5C 161.667,201.833 161.333,204.167 161,206.5C 160.768,205.263 160.268,204.263 159.5,203.5C 159.5,202.167 159.5,200.833 159.5,199.5C 159.492,193.792 159.992,193.459 161,198.5C 161.241,192.094 160.575,185.761 159,179.5C 158.814,182.036 158.314,184.369 157.5,186.5C 156.527,184.052 156.194,181.385 156.5,178.5C 156.677,171.866 157.177,171.866 158,178.5C 158.497,174.476 158.331,170.476 157.5,166.5C 155.831,156.477 154.165,146.477 152.5,136.5C 152.897,135.475 153.563,135.308 154.5,136C 156.487,137.319 157.654,139.152 158,141.5C 163.63,178.281 169.797,214.948 176.5,251.5C 177.518,252.193 178.518,252.859 179.5,253.5C 178.432,254.434 177.099,254.768 175.5,254.5C 175.215,256.288 175.548,257.955 176.5,259.5C 177.107,259.376 177.44,259.043 177.5,258.5C 177.973,257.094 178.973,256.427 180.5,256.5C 184.329,257.069 187.663,256.402 190.5,254.5C 192.377,249.075 194.544,243.741 197,238.5C 198.053,232.339 199.72,226.339 202,220.5C 206.671,212.488 211.838,204.821 217.5,197.5C 214.784,193.806 211.117,191.639 206.5,191C 204.84,189.512 203.84,187.679 203.5,185.5C 203.5,183.5 202.5,182.5 200.5,182.5C 194.428,177.3 194.428,171.967 200.5,166.5C 202.027,166.573 203.027,165.906 203.5,164.5C 203.842,163.662 204.508,163.328 205.5,163.5C 206.833,163.5 208.167,163.5 209.5,163.5C 209.5,162.5 209.5,161.5 209.5,160.5C 210.605,159.4 211.938,158.733 213.5,158.5C 215.027,158.427 216.027,159.094 216.5,160.5C 217.274,161.147 218.274,161.48 219.5,161.5C 221.03,161.36 222.03,160.693 222.5,159.5C 224.467,159.261 226.301,159.594 228,160.5C 229.647,157.684 229.48,155.184 227.5,153C 229.194,147.78 231.027,142.613 233,137.5C 234.805,133.857 237.638,131.524 241.5,130.5C 243.527,130.662 245.527,130.495 247.5,130C 248.056,129.617 248.389,129.117 248.5,128.5C 251.627,125.43 255.294,123.096 259.5,121.5C 258.265,119.684 258.265,118.017 259.5,116.5C 260.906,116.027 261.573,115.027 261.5,113.5C 262.285,109.404 261.118,106.07 258,103.5C 256.659,100.978 255.826,98.3113 255.5,95.5C 252.495,95.747 249.995,94.747 248,92.5C 246.178,87.5432 244.511,82.5432 243,77.5C 241.961,78.7101 240.794,79.7101 239.5,80.5C 238.5,80.5 237.5,80.5 236.5,80.5C 236.5,78.8333 236.5,77.1667 236.5,75.5C 238.404,75.2624 239.738,74.2624 240.5,72.5C 241.496,72.5858 242.329,72.2524 243,71.5C 243.78,69.6131 243.613,67.9464 242.5,66.5C 241.005,66.0113 239.671,65.3446 238.5,64.5C 236.919,62.8583 236.253,60.8583 236.5,58.5C 237.5,58.5 238.5,58.5 239.5,58.5C 241.956,59.2621 244.456,59.9288 247,60.5C 247.833,60.1667 248.667,59.8333 249.5,59.5C 250.124,54.4707 250.958,49.4707 252,44.5C 252.748,42.249 254.248,40.9156 256.5,40.5C 260.04,40.2474 263.373,39.5808 266.5,38.5C 267.659,36.7497 269.326,35.7497 271.5,35.5 Z M 288.5,58.5 C 284.167,59.1667 279.833,59.8333 275.5,60.5C 272.119,60.4595 268.786,60.7929 265.5,61.5C 264.508,61.6716 263.842,61.3382 263.5,60.5C 271.757,58.2574 280.09,57.5907 288.5,58.5 Z M 329.5,123.5 C 330.737,124.965 331.737,126.632 332.5,128.5C 332.932,129.71 333.599,130.71 334.5,131.5C 336.167,135.5 337.833,139.5 339.5,143.5C 335.126,137.419 331.793,130.752 329.5,123.5 Z M 293.5,125.5 C 293.027,126.906 292.027,127.573 290.5,127.5C 290.973,126.094 291.973,125.427 293.5,125.5 Z M 290.5,127.5 C 290.027,128.906 289.027,129.573 287.5,129.5C 287.973,128.094 288.973,127.427 290.5,127.5 Z M 287.5,129.5 C 283.419,132.874 278.753,135.207 273.5,136.5C 274.167,135.833 274.833,135.167 275.5,134.5C 279.5,132.833 283.5,131.167 287.5,129.5 Z M 207.5,170.5 C 209.099,170.232 210.432,170.566 211.5,171.5C 208.507,171.995 206.174,173.495 204.5,176C 205.056,176.383 205.389,176.883 205.5,177.5C 202.796,174.649 203.463,172.316 207.5,170.5 Z M 294.5,185.5 C 295.167,187.5 295.833,189.5 296.5,191.5C 296.811,199.228 296.311,206.895 295,214.5C 293.807,216.497 292.307,218.164 290.5,219.5C 288.973,219.427 287.973,220.094 287.5,221.5C 285.973,221.427 284.973,222.094 284.5,223.5C 282.973,223.427 281.973,224.094 281.5,225.5C 269.22,231.975 256.887,238.475 244.5,245C 238.229,244.728 232.062,243.561 226,241.5C 224.124,240.381 223.291,238.714 223.5,236.5C 227.286,237.929 231.119,239.262 235,240.5C 239.144,239.836 243.311,239.336 247.5,239C 249.692,238.074 251.692,236.907 253.5,235.5C 255.368,234.737 257.035,233.737 258.5,232.5C 269.247,226.937 278.747,219.604 287,210.5C 290.411,202.433 292.911,194.1 294.5,185.5 Z M 304.5,218.5 C 305.678,223.021 305.678,227.688 304.5,232.5C 303.326,233.514 302.66,234.847 302.5,236.5C 301.094,236.973 300.427,237.973 300.5,239.5C 296.592,244.902 291.592,249.069 285.5,252C 280.647,252.882 275.981,252.382 271.5,250.5C 273.167,249.833 274.833,249.167 276.5,248.5C 287.947,243.226 297.114,235.226 304,224.5C 304.495,222.527 304.662,220.527 304.5,218.5 Z M 180.5,255.5 C 180.5,255.833 180.5,256.167 180.5,256.5C 178.973,256.427 177.973,257.094 177.5,258.5C 176.596,257.791 176.263,256.791 176.5,255.5C 177.833,255.5 179.167,255.5 180.5,255.5 Z M 166.5,259.5 C 167.72,261.05 167.72,262.716 166.5,264.5C 166.167,264.5 165.833,264.5 165.5,264.5C 163.585,264.784 161.919,264.451 160.5,263.5C 162.5,262.167 164.5,260.833 166.5,259.5 Z M 230.5,275.5 C 234.324,284.481 238.657,293.148 243.5,301.5C 243.932,302.71 244.599,303.71 245.5,304.5C 245.811,305.478 246.478,306.145 247.5,306.5C 253.905,304.65 260.238,302.65 266.5,300.5C 267.167,300.5 267.5,300.833 267.5,301.5C 262.057,304.392 256.724,307.559 251.5,311C 245.478,311.575 239.478,311.409 233.5,310.5C 233.577,306.785 233.244,303.119 232.5,299.5C 232.354,295.613 231.687,291.946 230.5,288.5C 230.577,284.785 230.244,281.119 229.5,277.5C 229.328,276.508 229.662,275.842 230.5,275.5 Z"/></g>
<g><path style="opacity:0.345" fill="#f5b3d7" d="M 279.5,35.5 C 280.906,35.9731 281.573,36.9731 281.5,38.5C 280.094,38.0269 279.427,37.0269 279.5,35.5 Z"/></g>
<g><path style="opacity:0.8" fill="#f39eca" d="M 266.5,38.5 C 263.373,39.5808 260.04,40.2474 256.5,40.5C 259.507,38.8255 262.84,38.1588 266.5,38.5 Z"/></g>
<g><path style="opacity:0.616" fill="#f091c5" d="M 281.5,38.5 C 283.952,39.0654 286.285,39.7321 288.5,40.5C 285.612,41.0102 283.279,40.3435 281.5,38.5 Z"/></g>
<g><path style="opacity:0.451" fill="#f6bddc" d="M 295.5,47.5 C 296.404,48.209 296.737,49.209 296.5,50.5C 298.415,50.2155 300.081,50.5489 301.5,51.5C 299.5,51.5 297.5,51.5 295.5,51.5C 295.5,50.1667 295.5,48.8333 295.5,47.5 Z"/></g>
<g><path style="opacity:1" fill="#eb73ae" d="M 369.5,50.5 C 369.934,57.0123 366.934,59.679 360.5,58.5C 361.952,57.6981 363.618,57.1981 365.5,57C 366.733,54.6857 368.067,52.5191 369.5,50.5 Z"/></g>
<g><path style="opacity:0.086" fill="#fbdeee" d="M 343.5,58.5 C 342.167,58.5 341.5,59.1667 341.5,60.5C 340.596,59.791 340.263,58.791 340.5,57.5C 341.791,57.2627 342.791,57.596 343.5,58.5 Z"/></g>
<g><path style="opacity:0.875" fill="#f294c5" d="M 239.5,58.5 C 238.5,58.5 237.5,58.5 236.5,58.5C 236.253,60.8583 236.919,62.8583 238.5,64.5C 234.081,62.641 233.581,59.9743 237,56.5C 237.995,57.0659 238.828,57.7326 239.5,58.5 Z"/></g>
<g><path style="opacity:0.567" fill="#f2a2cf" d="M 288.5,58.5 C 290.429,58.2308 292.095,58.7308 293.5,60C 287.509,60.4995 281.509,60.6662 275.5,60.5C 279.833,59.8333 284.167,59.1667 288.5,58.5 Z"/></g>
<g><path style="opacity:0.067" fill="#f9d3e8" d="M 260.5,61.5 C 261.209,60.596 262.209,60.2627 263.5,60.5C 263.842,61.3382 264.508,61.6716 265.5,61.5C 264.791,62.404 263.791,62.7373 262.5,62.5C 262.158,61.6618 261.492,61.3284 260.5,61.5 Z"/></g>
<g><path style="opacity:0.169" fill="#f5b6d9" d="M 358.5,62.5 C 358.917,61.8761 359.584,61.5427 360.5,61.5C 362.418,61.8614 362.751,62.528 361.5,63.5C 360.791,62.596 359.791,62.2627 358.5,62.5 Z"/></g>
<g><path style="opacity:0.396" fill="#f5bddd" d="M 260.5,61.5 C 259.203,63.7719 257.203,64.6052 254.5,64C 256.407,62.878 258.407,62.0447 260.5,61.5 Z"/></g>
<g><path style="opacity:0.816" fill="#f196c6" d="M 242.5,66.5 C 243.613,67.9464 243.78,69.6131 243,71.5C 242.329,72.2524 241.496,72.5858 240.5,72.5C 242.081,70.8583 242.747,68.8583 242.5,66.5 Z"/></g>
<g><path style="opacity:0.573" fill="#f4a5cf" d="M 240.5,72.5 C 239.738,74.2624 238.404,75.2624 236.5,75.5C 237.262,73.7376 238.596,72.7376 240.5,72.5 Z"/></g>
<g><path style="opacity:0.392" fill="#f5acd3" d="M 356.5,73.5 C 356.573,75.0269 355.906,76.0269 354.5,76.5C 354.427,74.9731 355.094,73.9731 356.5,73.5 Z"/></g>
<g><path style="opacity:0.663" fill="#f4a6cf" d="M 236.5,75.5 C 236.5,77.1667 236.5,78.8333 236.5,80.5C 237.5,80.5 238.5,80.5 239.5,80.5C 238.745,82.4663 237.579,82.7996 236,81.5C 233.978,79.2462 234.145,77.2462 236.5,75.5 Z"/></g>
<g><path style="opacity:0.839" fill="#f191c2" d="M 419.5,80.5 C 419.167,80.5 418.833,80.5 418.5,80.5C 417.791,79.596 416.791,79.2627 415.5,79.5C 417.018,77.3967 418.685,77.23 420.5,79C 419.944,79.3826 419.611,79.8826 419.5,80.5 Z"/></g>
<g><path style="opacity:0.396" fill="#f4b0d5" d="M 353.5,78.5 C 353.573,80.0269 352.906,81.0269 351.5,81.5C 351.427,79.9731 352.094,78.9731 353.5,78.5 Z"/></g>
<g><path style="opacity:0.773" fill="#958f92" d="M 342.5,61.5 C 344.913,63.0507 347.579,63.7174 350.5,63.5C 348.295,64.1984 346.461,65.5318 345,67.5C 344.333,72.5 344.333,77.5 345,82.5C 345.236,84.1193 346.069,85.1193 347.5,85.5C 347.5,86.1667 347.167,86.5 346.5,86.5C 345.5,87.1667 344.5,87.8333 343.5,88.5C 342.833,88.5 342.5,88.8333 342.5,89.5C 341.833,89.8333 341.167,90.1667 340.5,90.5C 340.167,90.5 339.833,90.5 339.5,90.5C 340.787,88.3635 341.621,86.0301 342,83.5C 342.289,76.061 342.456,68.7277 342.5,61.5 Z"/></g>
<g><path style="opacity:0.699" fill="#868384" d="M 418.5,80.5 C 418.833,80.5 419.167,80.5 419.5,80.5C 419.518,87.0482 419.685,93.7148 420,100.5C 420.813,102.436 421.313,104.436 421.5,106.5C 419.992,107.635 418.992,109.635 418.5,112.5C 418.5,110.5 418.5,108.5 418.5,106.5C 418.483,104.435 418.15,102.435 417.5,100.5C 417.822,94.3457 417.155,88.3457 415.5,82.5C 416.71,82.0679 417.71,81.4013 418.5,80.5 Z"/></g>
<g><path style="opacity:0.659" fill="#f3a3cd" d="M 339.5,90.5 C 339.027,91.9063 338.027,92.573 336.5,92.5C 336.973,91.0937 337.973,90.427 339.5,90.5 Z"/></g>
<g><path style="opacity:1" fill="#71174a" d="M 346.5,86.5 C 349.16,95.483 351.827,104.483 354.5,113.5C 354.5,114.167 354.167,114.5 353.5,114.5C 351.158,106.805 348.658,99.1384 346,91.5C 346.056,100.841 346.556,110.174 347.5,119.5C 346.833,119.5 346.5,119.833 346.5,120.5C 346.167,120.5 345.833,120.5 345.5,120.5C 345.496,109.778 344.829,99.1114 343.5,88.5C 344.5,87.8333 345.5,87.1667 346.5,86.5 Z"/></g>
<g><path style="opacity:0.125" fill="#fad5e9" d="M 318.5,97.5 C 318.5,99.5 318.5,101.5 318.5,103.5C 317.5,103.5 316.5,103.5 315.5,103.5C 316.842,101.639 317.842,99.6391 318.5,97.5 Z"/></g>
<g><path style="opacity:1" fill="#d92283" d="M 353.5,114.5 C 352.833,114.5 352.5,114.833 352.5,115.5C 351.415,117.587 349.749,118.92 347.5,119.5C 346.556,110.174 346.056,100.841 346,91.5C 348.658,99.1384 351.158,106.805 353.5,114.5 Z"/></g>
<g><path style="opacity:0.427" fill="#f7c3e0" d="M 313.5,104.5 C 313.19,106.144 312.19,107.144 310.5,107.5C 310.81,105.856 311.81,104.856 313.5,104.5 Z"/></g>
<g><path style="opacity:0.071" fill="#f9d2e8" d="M 324.5,112.5 C 323.152,111.473 322.652,110.14 323,108.5C 324.188,109.563 324.688,110.897 324.5,112.5 Z"/></g>
<g><path style="opacity:1" fill="#792050" d="M 342.5,89.5 C 338.679,103.271 336.013,117.271 334.5,131.5C 333.599,130.71 332.932,129.71 332.5,128.5C 334.937,115.908 337.604,103.242 340.5,90.5C 341.167,90.1667 341.833,89.8333 342.5,89.5 Z"/></g>
<g><path style="opacity:0.094" fill="#fbe4f1" d="M 324.5,112.5 C 325.401,113.29 326.068,114.29 326.5,115.5C 324.952,115.179 324.285,114.179 324.5,112.5 Z"/></g>
<g><path style="opacity:0.353" fill="#f6badb" d="M 261.5,113.5 C 261.573,115.027 260.906,116.027 259.5,116.5C 259.427,114.973 260.094,113.973 261.5,113.5 Z"/></g>
<g><path style="opacity:0.671" fill="#a29ea0" d="M 354.5,113.5 C 354.833,113.5 355.167,113.5 355.5,113.5C 357.773,119.656 359.44,125.989 360.5,132.5C 358.901,132.768 357.568,132.434 356.5,131.5C 357.376,131.631 358.043,131.298 358.5,130.5C 357.001,125.839 355.501,121.172 354,116.5C 353.617,115.944 353.117,115.611 352.5,115.5C 352.5,114.833 352.833,114.5 353.5,114.5C 354.167,114.5 354.5,114.167 354.5,113.5 Z"/></g>
<g><path style="opacity:1" fill="#ea6ea9" d="M 325.5,116.5 C 326.873,116.343 328.207,116.51 329.5,117C 328.748,117.671 328.414,118.504 328.5,119.5C 327.167,120.167 327.167,120.833 328.5,121.5C 328.5,122.167 328.5,122.833 328.5,123.5C 325.979,121.97 324.979,119.636 325.5,116.5 Z"/></g>
<g><path style="opacity:0.282" fill="#f6c0dd" d="M 296.5,123.5 C 296.461,122.244 296.961,121.244 298,120.5C 298.585,121.998 298.085,122.998 296.5,123.5 Z"/></g>
<g><path style="opacity:0.627" fill="#a9a7a8" d="M 417.5,100.5 C 418.15,102.435 418.483,104.435 418.5,106.5C 413.504,120.437 409.504,134.771 406.5,149.5C 405.5,150.167 404.5,150.833 403.5,151.5C 407.39,134.181 412.057,117.181 417.5,100.5 Z"/></g>
<g><path style="opacity:0.174" fill="#bcb6b9" d="M 347.5,119.5 C 348.324,122.764 348.658,126.098 348.5,129.5C 349.791,129.263 350.791,129.596 351.5,130.5C 349.585,130.784 347.919,130.451 346.5,129.5C 346.5,126.5 346.5,123.5 346.5,120.5C 346.5,119.833 346.833,119.5 347.5,119.5 Z"/></g>
<g><path style="opacity:0.043" fill="#ebdee5" d="M 345.5,120.5 C 345.833,120.5 346.167,120.5 346.5,120.5C 346.5,123.5 346.5,126.5 346.5,129.5C 345.596,128.791 345.263,127.791 345.5,126.5C 345.768,124.901 345.434,123.568 344.5,122.5C 344.833,121.833 345.167,121.167 345.5,120.5 Z"/></g>
<g><path style="opacity:0.71" fill="#a9a8a8" d="M 421.5,106.5 C 427.21,120.324 431.544,134.657 434.5,149.5C 433.209,149.737 432.209,149.404 431.5,148.5C 432.043,148.44 432.376,148.107 432.5,147.5C 428.668,135.506 424.834,123.506 421,111.5C 421.332,123.14 421.499,134.807 421.5,146.5C 420.833,146.5 420.167,146.5 419.5,146.5C 418.566,135.205 418.232,123.871 418.5,112.5C 418.992,109.635 419.992,107.635 421.5,106.5 Z"/></g>
<g><path style="opacity:0.631" fill="#f095c7" d="M 248.5,128.5 C 248.389,129.117 248.056,129.617 247.5,130C 245.527,130.495 243.527,130.662 241.5,130.5C 243.657,129.593 245.99,128.927 248.5,128.5 Z"/></g>
<g><path style="opacity:0.886" fill="#f4a3cd" d="M 360.5,132.5 C 362.453,133.244 363.453,134.744 363.5,137C 363.486,138.385 363.152,139.551 362.5,140.5C 362.635,137.583 361.968,134.916 360.5,132.5 Z"/></g>
<g><path style="opacity:1" fill="#ee80b4" d="M 275.5,134.5 C 274.833,135.167 274.167,135.833 273.5,136.5C 272.508,136.328 271.842,136.662 271.5,137.5C 270.833,137.5 270.167,137.5 269.5,137.5C 270.68,135.087 272.68,134.087 275.5,134.5 Z"/></g>
<g><path style="opacity:0.043" fill="#f9d2e7" d="M 253.5,141.5 C 254.568,140.566 255.901,140.232 257.5,140.5C 257.5,141.167 257.833,141.5 258.5,141.5C 257.791,142.404 256.791,142.737 255.5,142.5C 255.158,141.662 254.492,141.328 253.5,141.5 Z"/></g>
<g><path style="opacity:0.788" fill="#f29cca" d="M 262.5,139.5 C 263.209,138.596 264.209,138.263 265.5,138.5C 265.842,139.338 266.508,139.672 267.5,139.5C 265.898,141.074 263.898,141.741 261.5,141.5C 261.5,141.167 261.5,140.833 261.5,140.5C 264.517,140.444 264.85,140.11 262.5,139.5 Z"/></g>
<g><path style="opacity:0.132" fill="#fadfee" d="M 242.5,141.5 C 245.833,141.5 249.167,141.5 252.5,141.5C 248.971,143.423 244.971,144.089 240.5,143.5C 240.5,143.167 240.5,142.833 240.5,142.5C 241.492,142.672 242.158,142.338 242.5,141.5 Z"/></g>
<g><path style="opacity:0.867" fill="#ed7bb6" d="M 362.5,141.5 C 361.275,145.388 358.941,148.388 355.5,150.5C 356.568,146.557 358.402,142.89 361,139.5C 361.278,140.416 361.778,141.082 362.5,141.5 Z"/></g>
<g><path style="opacity:0.686" fill="#f3a6d0" d="M 417.5,146.5 C 415.095,147.768 412.428,148.435 409.5,148.5C 411.838,146.96 414.505,146.294 417.5,146.5 Z"/></g>
<g><path style="opacity:1" fill="#dd2a87" d="M 417.5,146.5 C 418.167,146.5 418.833,146.5 419.5,146.5C 420.167,146.5 420.833,146.5 421.5,146.5C 425.122,146.322 428.456,146.989 431.5,148.5C 432.209,149.404 433.209,149.737 434.5,149.5C 434.285,154.633 432.285,159.3 428.5,163.5C 429.127,164.417 429.461,165.417 429.5,166.5C 426.627,168.677 423.294,169.677 419.5,169.5C 416.795,169.684 414.462,169.017 412.5,167.5C 412.027,166.094 411.027,165.427 409.5,165.5C 405.729,162.146 403.063,157.979 401.5,153C 401.836,151.97 402.503,151.47 403.5,151.5C 404.5,150.833 405.5,150.167 406.5,149.5C 407.391,148.89 408.391,148.557 409.5,148.5C 412.428,148.435 415.095,147.768 417.5,146.5 Z"/></g>
<g><path style="opacity:0.878" fill="#f4a3cb" d="M 330.5,153.5 C 332.446,154.035 333.446,155.368 333.5,157.5C 332.026,156.564 331.026,155.23 330.5,153.5 Z"/></g>
<g><path style="opacity:0.439" fill="#f7c0de" d="M 213.5,158.5 C 211.938,158.733 210.605,159.4 209.5,160.5C 209.958,157.691 211.291,157.024 213.5,158.5 Z"/></g>
<g><path style="opacity:0.263" fill="#f5bfde" d="M 222.5,159.5 C 222.03,160.693 221.03,161.36 219.5,161.5C 218.274,161.48 217.274,161.147 216.5,160.5C 218.621,160.675 220.621,160.341 222.5,159.5 Z"/></g>
<g><path style="opacity:1" fill="#eb72b0" d="M 434.5,149.5 C 435.117,149.611 435.617,149.944 436,150.5C 436.869,157.092 434.702,162.426 429.5,166.5C 429.461,165.417 429.127,164.417 428.5,163.5C 432.285,159.3 434.285,154.633 434.5,149.5 Z"/></g>
<g><path style="opacity:0.843" fill="#f29cc9" d="M 209.5,160.5 C 209.5,161.5 209.5,162.5 209.5,163.5C 208.167,163.5 206.833,163.5 205.5,163.5C 206.926,162.659 208.26,161.659 209.5,160.5 Z"/></g>
<g><path style="opacity:0.937" fill="#ec77b5" d="M 152.5,136.5 C 154.165,146.477 155.831,156.477 157.5,166.5C 156.698,167.952 156.198,169.618 156,171.5C 155.802,169.618 155.302,167.952 154.5,166.5C 152.004,156.453 151.338,146.453 152.5,136.5 Z"/></g>
<g><path style="opacity:0.671" fill="#f4a5ce" d="M 203.5,164.5 C 203.027,165.906 202.027,166.573 200.5,166.5C 200.973,165.094 201.973,164.427 203.5,164.5 Z"/></g>
<g><path style="opacity:0.463" fill="#f3a4ce" d="M 409.5,165.5 C 411.027,165.427 412.027,166.094 412.5,167.5C 410.973,167.573 409.973,166.906 409.5,165.5 Z"/></g>
<g><path style="opacity:0.093" fill="#f8d2e7" d="M 207.5,170.5 C 211.981,169.352 216.648,169.185 221.5,170C 218.12,170.339 214.787,170.839 211.5,171.5C 210.432,170.566 209.099,170.232 207.5,170.5 Z"/></g>
<g><path style="opacity:0.898" fill="#f3a8d1" d="M 154.5,166.5 C 155.302,167.952 155.802,169.618 156,171.5C 156.198,169.618 156.698,167.952 157.5,166.5C 158.331,170.476 158.497,174.476 158,178.5C 157.177,171.866 156.677,171.866 156.5,178.5C 155.205,174.733 154.539,170.733 154.5,166.5 Z"/></g>
<g><path style="opacity:0.559" fill="#f5b2d7" d="M 309.5,170.5 C 309.058,174.154 308.724,177.821 308.5,181.5C 307.226,177.735 307.559,174.069 309.5,170.5 Z"/></g>
<g><path style="opacity:0.608" fill="#f7b8d9" d="M 200.5,182.5 C 202.5,182.5 203.5,183.5 203.5,185.5C 202.167,184.833 201.167,183.833 200.5,182.5 Z"/></g>
<g><path style="opacity:0.459" fill="#f3abd3" d="M 209.5,180.5 C 211.296,181.793 212.963,183.293 214.5,185C 211.814,184.823 210.148,183.323 209.5,180.5 Z"/></g>
<g><path style="opacity:0.035" fill="#f8cde5" d="M 296.5,191.5 C 295.833,189.5 295.167,187.5 294.5,185.5C 294.461,184.244 294.961,183.244 296,182.5C 296.498,185.482 296.665,188.482 296.5,191.5 Z"/></g>
<g><path style="opacity:0.898" fill="#f094c5" d="M 159.5,199.5 C 158.105,195.409 157.438,191.076 157.5,186.5C 158.314,184.369 158.814,182.036 159,179.5C 160.575,185.761 161.241,192.094 161,198.5C 159.992,193.459 159.492,193.792 159.5,199.5 Z"/></g>
<g><path style="opacity:0.804" fill="#f4a7cf" d="M 312.5,192.5 C 314.072,195.215 315.072,198.215 315.5,201.5C 313.528,198.916 312.528,195.916 312.5,192.5 Z"/></g>
<g><path style="opacity:0.71" fill="#f3a9d2" d="M 164.5,219.5 C 163.252,216.058 162.419,212.392 162,208.5C 161.505,210.473 161.338,212.473 161.5,214.5C 160.475,211.026 159.808,207.36 159.5,203.5C 160.268,204.263 160.768,205.263 161,206.5C 161.333,204.167 161.667,201.833 162,199.5C 163.326,206.11 164.16,212.776 164.5,219.5 Z"/></g>
<g><path style="opacity:1" fill="#e966ab" d="M 164.5,219.5 C 165.338,219.842 165.672,220.508 165.5,221.5C 164.691,223.292 164.191,225.292 164,227.5C 163.768,226.263 163.268,225.263 162.5,224.5C 161.793,221.214 161.46,217.881 161.5,214.5C 161.338,212.473 161.505,210.473 162,208.5C 162.419,212.392 163.252,216.058 164.5,219.5 Z"/></g>
<g><path style="opacity:0.616" fill="#f4a6d0" d="M 290.5,219.5 C 290.027,220.906 289.027,221.573 287.5,221.5C 287.973,220.094 288.973,219.427 290.5,219.5 Z"/></g>
<g><path style="opacity:0.275" fill="#f3a8d1" d="M 304.5,232.5 C 305.678,227.688 305.678,223.021 304.5,218.5C 304.248,215.68 304.748,213.014 306,210.5C 306.667,217.5 306.667,224.5 306,231.5C 305.617,232.056 305.117,232.389 304.5,232.5 Z"/></g>
<g><path style="opacity:0.659" fill="#f3a1cd" d="M 287.5,221.5 C 287.027,222.906 286.027,223.573 284.5,223.5C 284.973,222.094 285.973,221.427 287.5,221.5 Z"/></g>
<g><path style="opacity:0.71" fill="#f29ac9" d="M 284.5,223.5 C 284.027,224.906 283.027,225.573 281.5,225.5C 281.973,224.094 282.973,223.427 284.5,223.5 Z"/></g>
<g><path style="opacity:0.933" fill="#f29fcc" d="M 165.5,221.5 C 166.114,225.135 166.448,228.802 166.5,232.5C 165.732,231.737 165.232,230.737 165,229.5C 164.506,231.134 164.34,232.801 164.5,234.5C 163.215,231.411 162.549,228.078 162.5,224.5C 163.268,225.263 163.768,226.263 164,227.5C 164.191,225.292 164.691,223.292 165.5,221.5 Z"/></g>
<g><path style="opacity:0.263" fill="#f6bbdb" d="M 326.5,229.5 C 327.906,229.973 328.573,230.973 328.5,232.5C 327.094,232.027 326.427,231.027 326.5,229.5 Z"/></g>
<g><path style="opacity:1" fill="#ee80b3" d="M 258.5,232.5 C 257.035,233.737 255.368,234.737 253.5,235.5C 253.5,234.5 253.5,233.5 253.5,232.5C 255.167,232.5 256.833,232.5 258.5,232.5 Z"/></g>
<g><path style="opacity:0.455" fill="#f4a7d0" d="M 302.5,236.5 C 302.573,238.027 301.906,239.027 300.5,239.5C 300.427,237.973 301.094,236.973 302.5,236.5 Z"/></g>
<g><path style="opacity:0.906" fill="#e966a9" d="M 166.5,232.5 C 167.392,237.515 168.392,242.515 169.5,247.5C 167.936,250.984 166.936,254.65 166.5,258.5C 166.5,258.833 166.5,259.167 166.5,259.5C 164.5,260.833 162.5,262.167 160.5,263.5C 160.688,261.897 160.188,260.563 159,259.5C 158.108,262.453 158.608,265.119 160.5,267.5C 159.757,268.182 159.091,268.849 158.5,269.5C 155.862,268.758 154.529,266.925 154.5,264C 155.286,260.542 155.62,257.042 155.5,253.5C 156.5,253.5 157.5,253.5 158.5,253.5C 158.34,255.199 158.506,256.866 159,258.5C 161.488,256.032 163.988,253.699 166.5,251.5C 165.102,245.917 164.435,240.25 164.5,234.5C 164.34,232.801 164.506,231.134 165,229.5C 165.232,230.737 165.732,231.737 166.5,232.5 Z"/></g>
<g><path style="opacity:0.522" fill="#f4aed5" d="M 276.5,248.5 C 274.833,249.167 273.167,249.833 271.5,250.5C 270.624,250.631 269.957,250.298 269.5,249.5C 271.743,248.526 274.076,248.192 276.5,248.5 Z"/></g>
<g><path style="opacity:0.523" fill="#f19bcb" d="M 179.5,253.5 C 180.338,253.842 180.672,254.508 180.5,255.5C 179.167,255.5 177.833,255.5 176.5,255.5C 176.263,256.791 176.596,257.791 177.5,258.5C 177.44,259.043 177.107,259.376 176.5,259.5C 175.548,257.955 175.215,256.288 175.5,254.5C 177.099,254.768 178.432,254.434 179.5,253.5 Z"/></g>
<g><path style="opacity:0.512" fill="#f3a5d0" d="M 190.5,254.5 C 187.663,256.402 184.329,257.069 180.5,256.5C 180.5,256.167 180.5,255.833 180.5,255.5C 183.939,255.747 187.272,255.414 190.5,254.5 Z"/></g>
<g><path style="opacity:0.147" fill="#f8cce5" d="M 210.5,258.5 C 210.672,257.508 210.338,256.842 209.5,256.5C 209.783,255.711 210.283,255.044 211,254.5C 211.765,256.066 211.598,257.399 210.5,258.5 Z"/></g>
<g><path style="opacity:0.118" fill="#f9d2e7" d="M 166.5,259.5 C 166.5,259.167 166.5,258.833 166.5,258.5C 167.693,258.97 168.36,259.97 168.5,261.5C 168.36,263.03 167.693,264.03 166.5,264.5C 167.72,262.716 167.72,261.05 166.5,259.5 Z"/></g>
<g><path style="opacity:0.063" fill="#f9d5e9" d="M 160.5,263.5 C 161.919,264.451 163.585,264.784 165.5,264.5C 163.636,265.793 161.636,265.793 159.5,264.5C 159.624,263.893 159.957,263.56 160.5,263.5 Z"/></g>
<g><path style="opacity:0.769" fill="#f39ecb" d="M 336.5,265.5 C 337.6,266.605 338.267,267.938 338.5,269.5C 336.194,268.625 335.527,267.292 336.5,265.5 Z"/></g>
<g><path style="opacity:0.808" fill="#f191c3" d="M 208.5,265.5 C 208.253,267.858 208.919,269.858 210.5,271.5C 206.305,270.471 205.638,268.471 208.5,265.5 Z"/></g>
<g><path style="opacity:0.345" fill="#f6b5d8" d="M 338.5,269.5 C 339.906,269.973 340.573,270.973 340.5,272.5C 339.094,272.027 338.427,271.027 338.5,269.5 Z"/></g>
<g><path style="opacity:0.863" fill="#f08bc0" d="M 212.5,272.5 C 215.059,272.198 217.393,272.532 219.5,273.5C 216.828,275.044 214.495,274.711 212.5,272.5 Z"/></g>
<g><path style="opacity:0.576" fill="#ef92c6" d="M 162.5,270.5 C 163.735,270.721 164.735,271.388 165.5,272.5C 166.474,274.743 166.808,277.076 166.5,279.5C 165.764,276.312 164.43,273.312 162.5,270.5 Z"/></g>
<g><path style="opacity:0.098" fill="#f9d4e9" d="M 230.5,275.5 C 229.662,275.842 229.328,276.508 229.5,277.5C 228.387,276.054 228.22,274.387 229,272.5C 229.513,273.527 230.013,274.527 230.5,275.5 Z"/></g>
<g><path style="opacity:0.875" fill="#f08ec3" d="M 173.5,288.5 C 173.178,290.722 173.845,292.556 175.5,294C 174.833,294.333 174.167,294.667 173.5,295C 175.058,295.21 176.391,295.71 177.5,296.5C 175.833,296.5 174.167,296.5 172.5,296.5C 172.194,293.615 172.527,290.948 173.5,288.5 Z"/></g>
<g><path style="opacity:0.831" fill="#f29ac9" d="M 230.5,288.5 C 231.687,291.946 232.354,295.613 232.5,299.5C 230.783,296.155 230.116,292.489 230.5,288.5 Z"/></g>
<g><path style="opacity:0.047" fill="#f9dced" d="M 266.5,300.5 C 266.842,299.662 267.508,299.328 268.5,299.5C 268.672,300.492 268.338,301.158 267.5,301.5C 267.5,300.833 267.167,300.5 266.5,300.5 Z"/></g>
<g><path style="opacity:0.89" fill="#f49cc7" d="M 243.5,301.5 C 245.048,301.821 245.715,302.821 245.5,304.5C 244.599,303.71 243.932,302.71 243.5,301.5 Z"/></g>
<g><path style="opacity:0.863" fill="#f29bc7" d="M 379.5,338.5 C 380.537,339.93 381.204,341.597 381.5,343.5C 379.787,342.365 379.12,340.698 379.5,338.5 Z"/></g>
<g><path style="opacity:0.847" fill="#f39fca" d="M 381.5,344.5 C 382.537,345.93 383.204,347.597 383.5,349.5C 381.787,348.365 381.12,346.698 381.5,344.5 Z"/></g>
<g><path style="opacity:0.733" fill="#f39dcb" d="M 385.5,358.5 C 387.04,360.838 387.706,363.505 387.5,366.5C 386.232,364.095 385.565,361.428 385.5,358.5 Z"/></g>
<g><path style="opacity:0.825" fill="#ec74b4" d="M 389.5,413.5 C 388.883,418.269 388.216,422.936 387.5,427.5C 386.897,422.381 387.564,417.715 389.5,413.5 Z"/></g>
<g><path style="opacity:0.322" fill="#f3abd4" d="M 387.5,428.5 C 381.25,430.459 374.584,431.126 367.5,430.5C 374.067,429.799 380.733,429.132 387.5,428.5 Z"/></g>
</svg>